<svg width="20" height="18" viewBox="0 0 20 18" fill="none" xmlns="http://www.w3.org/2000/svg">
<path d="M15.0003 13.1665V17.3332H13.3337V13.1665C13.3337 9.45734 15.537 6.26234 18.7062 4.81984L19.3962 6.3365C18.0851 6.93282 16.9734 7.89396 16.1939 9.10511C15.4144 10.3163 15 11.7262 15.0003 13.1665V13.1665ZM6.66699 13.1665V17.3332H5.00033V13.1665C5.00045 11.7263 4.58601 10.3166 3.80652 9.10559C3.02703 7.89461 1.91543 6.9336 0.604492 6.33734L1.29449 4.81984C2.89673 5.54858 4.25533 6.72314 5.20801 8.20321C6.16069 9.68329 6.66719 11.4063 6.66699 13.1665ZM10.0003 8.99984C8.89526 8.99984 7.83545 8.56085 7.05405 7.77945C6.27265 6.99805 5.83366 5.93824 5.83366 4.83317C5.83366 3.7281 6.27265 2.66829 7.05405 1.88689C7.83545 1.10549 8.89526 0.666504 10.0003 0.666504C11.1054 0.666504 12.1652 1.10549 12.9466 1.88689C13.728 2.66829 14.167 3.7281 14.167 4.83317C14.167 5.93824 13.728 6.99805 12.9466 7.77945C12.1652 8.56085 11.1054 8.99984 10.0003 8.99984V8.99984ZM10.0003 7.33317C10.3286 7.33317 10.6537 7.26851 10.957 7.14287C11.2603 7.01723 11.5359 6.83308 11.7681 6.60094C12.0002 6.36879 12.1844 6.09319 12.31 5.78988C12.4357 5.48657 12.5003 5.16148 12.5003 4.83317C12.5003 4.50487 12.4357 4.17978 12.31 3.87646C12.1844 3.57315 12.0002 3.29755 11.7681 3.0654C11.5359 2.83326 11.2603 2.64911 10.957 2.52347C10.6537 2.39784 10.3286 2.33317 10.0003 2.33317C9.33728 2.33317 8.7014 2.59656 8.23256 3.0654C7.76372 3.53424 7.50033 4.17013 7.50033 4.83317C7.50033 5.49621 7.76372 6.1321 8.23256 6.60094C8.7014 7.06978 9.33728 7.33317 10.0003 7.33317V7.33317Z" fill="#330065"/>
</svg>
