<svg width="18" height="19" viewBox="0 0 18 19" fill="none" xmlns="http://www.w3.org/2000/svg">
<path d="M18 17.7327C18 17.9979 17.8946 18.2523 17.7071 18.4398C17.5196 18.6273 17.2652 18.7327 17 18.7327H1C0.734784 18.7327 0.48043 18.6273 0.292893 18.4398C0.105357 18.2523 2.4071e-07 17.9979 2.4071e-07 17.7327V7.22269C-0.000105484 7.07031 0.0346172 6.91991 0.101516 6.78299C0.168415 6.64608 0.26572 6.52626 0.386 6.43269L8.386 0.210694C8.56154 0.0741392 8.7776 0 9 0C9.2224 0 9.43846 0.0741392 9.614 0.210694L17.614 6.43269C17.7343 6.52626 17.8316 6.64608 17.8985 6.78299C17.9654 6.91991 18.0001 7.07031 18 7.22269V17.7327V17.7327ZM8 10.7327V16.7327H10V10.7327H8Z" fill="white"/>
</svg>
