<svg width="18" height="16" viewBox="0 0 18 16" fill="none" xmlns="http://www.w3.org/2000/svg">
<path d="M0.666992 1.33333C0.666992 1.11232 0.75479 0.900358 0.91107 0.744078C1.06735 0.587797 1.27931 0.5 1.50033 0.5H16.5003C16.7213 0.5 16.9333 0.587797 17.0896 0.744078C17.2459 0.900358 17.3337 1.11232 17.3337 1.33333V5.91667C16.7811 5.91667 16.2512 6.13616 15.8605 6.52686C15.4698 6.91756 15.2503 7.44747 15.2503 8C15.2503 8.55253 15.4698 9.08244 15.8605 9.47314C16.2512 9.86384 16.7811 10.0833 17.3337 10.0833V14.6667C17.3337 14.8877 17.2459 15.0996 17.0896 15.2559C16.9333 15.4122 16.7213 15.5 16.5003 15.5H1.50033C1.27931 15.5 1.06735 15.4122 0.91107 15.2559C0.75479 15.0996 0.666992 14.8877 0.666992 14.6667V1.33333ZM5.73783 13.8333C5.82372 13.5892 5.98328 13.3777 6.1945 13.2281C6.40572 13.0785 6.65816 12.9981 6.91699 12.9981C7.17582 12.9981 7.42827 13.0785 7.63948 13.2281C7.8507 13.3777 8.01027 13.5892 8.09616 13.8333H15.667V11.36C15.041 11.0498 14.5141 10.5708 14.1457 9.97712C13.7774 9.38344 13.5822 8.69867 13.5822 8C13.5822 7.30133 13.7774 6.61656 14.1457 6.02288C14.5141 5.42921 15.041 4.95025 15.667 4.64V2.16667H8.09616C8.01027 2.41083 7.8507 2.62231 7.63948 2.77191C7.42827 2.92151 7.17582 3.00186 6.91699 3.00186C6.65816 3.00186 6.40572 2.92151 6.1945 2.77191C5.98328 2.62231 5.82372 2.41083 5.73783 2.16667H2.33366V13.8333H5.73783ZM6.91699 7.16667C6.58547 7.16667 6.26753 7.03497 6.03311 6.80055C5.79869 6.56613 5.66699 6.24819 5.66699 5.91667C5.66699 5.58515 5.79869 5.2672 6.03311 5.03278C6.26753 4.79836 6.58547 4.66667 6.91699 4.66667C7.24851 4.66667 7.56646 4.79836 7.80088 5.03278C8.0353 5.2672 8.16699 5.58515 8.16699 5.91667C8.16699 6.24819 8.0353 6.56613 7.80088 6.80055C7.56646 7.03497 7.24851 7.16667 6.91699 7.16667ZM6.91699 11.3333C6.58547 11.3333 6.26753 11.2016 6.03311 10.9672C5.79869 10.7328 5.66699 10.4149 5.66699 10.0833C5.66699 9.75181 5.79869 9.43387 6.03311 9.19945C6.26753 8.96503 6.58547 8.83333 6.91699 8.83333C7.24851 8.83333 7.56646 8.96503 7.80088 9.19945C8.0353 9.43387 8.16699 9.75181 8.16699 10.0833C8.16699 10.4149 8.0353 10.7328 7.80088 10.9672C7.56646 11.2016 7.24851 11.3333 6.91699 11.3333Z" fill="#330065"/>
</svg>
