<svg width="35" height="43" viewBox="0 0 35 43" fill="none" xmlns="http://www.w3.org/2000/svg">
<path d="M17.5 0.875L32.9069 4.29875C33.3232 4.39131 33.6956 4.62306 33.9625 4.95576C34.2294 5.28846 34.3749 5.70222 34.375 6.12875V24.8544C34.3749 26.7064 33.9175 28.5297 33.0435 30.1625C32.1696 31.7953 30.906 33.1871 29.365 34.2144L17.5 42.125L5.635 34.2144C4.09426 33.1873 2.83086 31.7958 1.9569 30.1633C1.08294 28.5309 0.625443 26.7079 0.625 24.8563V6.12875C0.625073 5.70222 0.770571 5.28846 1.03748 4.95576C1.30439 4.62306 1.67676 4.39131 2.09312 4.29875L17.5 0.875ZM17.5 12.125C16.6745 12.125 15.8721 12.3974 15.2172 12.9C14.5624 13.4025 14.0916 14.1071 13.8779 14.9044C13.6643 15.7018 13.7197 16.5473 14.0356 17.31C14.3515 18.0726 14.9101 18.7097 15.625 19.1225V27.125H19.375L19.3769 19.1225C20.0919 18.7096 20.6506 18.0724 20.9665 17.3095C21.2823 16.5467 21.3376 15.701 21.1237 14.9035C20.9098 14.1061 20.4387 13.4015 19.7835 12.8991C19.1283 12.3967 18.3256 12.1246 17.5 12.125Z" fill="#7EDFB7"/>
</svg>
