<svg width="14" height="12" viewBox="0 0 14 12" fill="none" xmlns="http://www.w3.org/2000/svg">
<path d="M7.125 7.75H5.875C4.84975 7.74961 3.8439 8.02946 2.96617 8.55931C2.08845 9.08916 1.37225 9.84885 0.895001 10.7562C0.881586 10.5878 0.874914 10.4189 0.875001 10.25C0.875001 6.79813 3.67313 4 7.125 4V0.5625L13.6875 5.875L7.125 11.1875V7.75ZM5.875 6.5H8.375V8.5675L11.7006 5.875L8.375 3.1825V5.25H7.125C6.40641 5.24919 5.69612 5.40364 5.04274 5.70276C4.38937 6.00189 3.80833 6.43864 3.33938 6.98312C4.14645 6.66326 5.00685 6.49932 5.875 6.5Z" fill="white"/>
</svg>
