<svg width="26" height="26" viewBox="0 0 26 26" fill="none" xmlns="http://www.w3.org/2000/svg">
<circle opacity="0.1" cx="13" cy="13" r="13" fill="#330065"/>
<path opacity="0.5" d="M18.5 19.75H17.25V18.5C17.25 18.0027 17.0525 17.5258 16.7008 17.1742C16.3492 16.8225 15.8723 16.625 15.375 16.625H11.625C11.1277 16.625 10.6508 16.8225 10.2992 17.1742C9.94754 17.5258 9.75 18.0027 9.75 18.5V19.75H8.5V18.5C8.5 17.6712 8.82924 16.8763 9.41529 16.2903C10.0013 15.7042 10.7962 15.375 11.625 15.375H15.375C16.2038 15.375 16.9987 15.7042 17.5847 16.2903C18.1708 16.8763 18.5 17.6712 18.5 18.5V19.75ZM13.5 14.125C13.0075 14.125 12.5199 14.028 12.0649 13.8395C11.61 13.6511 11.1966 13.3749 10.8483 13.0267C10.5001 12.6784 10.2239 12.265 10.0355 11.8101C9.847 11.3551 9.75 10.8675 9.75 10.375C9.75 9.88254 9.847 9.39491 10.0355 8.93994C10.2239 8.48497 10.5001 8.07157 10.8483 7.72335C11.1966 7.37513 11.61 7.09891 12.0649 6.91045C12.5199 6.722 13.0075 6.625 13.5 6.625C14.4946 6.625 15.4484 7.02009 16.1517 7.72335C16.8549 8.42661 17.25 9.38044 17.25 10.375C17.25 11.3696 16.8549 12.3234 16.1517 13.0267C15.4484 13.7299 14.4946 14.125 13.5 14.125V14.125ZM13.5 12.875C14.163 12.875 14.7989 12.6116 15.2678 12.1428C15.7366 11.6739 16 11.038 16 10.375C16 9.71196 15.7366 9.07607 15.2678 8.60723C14.7989 8.13839 14.163 7.875 13.5 7.875C12.837 7.875 12.2011 8.13839 11.7322 8.60723C11.2634 9.07607 11 9.71196 11 10.375C11 11.038 11.2634 11.6739 11.7322 12.1428C12.2011 12.6116 12.837 12.875 13.5 12.875V12.875Z" fill="#330065"/>
</svg>
