<svg width="40" height="39" viewBox="0 0 40 39" fill="none" xmlns="http://www.w3.org/2000/svg">
<path d="M13.875 4.62488V8.37488H4.5V34.6249H34.5V17.7499H38.25V36.4999C38.25 36.9972 38.0525 37.4741 37.7008 37.8257C37.3492 38.1773 36.8723 38.3749 36.375 38.3749H2.625C2.12772 38.3749 1.65081 38.1773 1.29917 37.8257C0.947544 37.4741 0.75 36.9972 0.75 36.4999V6.49988C0.75 6.0026 0.947544 5.52569 1.29917 5.17406C1.65081 4.82243 2.12772 4.62488 2.625 4.62488H13.875ZM32.5313 8.37488L27 2.84363L29.6512 0.192383L39.6637 10.2049C39.8209 10.3622 39.9279 10.5626 39.9712 10.7807C40.0145 10.9988 39.9922 11.2248 39.9072 11.4303C39.8221 11.6357 39.6781 11.8113 39.4933 11.935C39.3084 12.0586 39.0911 12.1247 38.8688 12.1249H23.25C22.2554 12.1249 21.3016 12.52 20.5984 13.2232C19.8951 13.9265 19.5 14.8803 19.5 15.8749V27.1249H15.75V15.8749C15.75 13.8858 16.5402 11.9781 17.9467 10.5716C19.3532 9.16506 21.2609 8.37488 23.25 8.37488H32.5313Z" fill="#7EDFB7"/>
</svg>
