<svg width="40" height="42" viewBox="0 0 40 42" fill="none" xmlns="http://www.w3.org/2000/svg">
<path d="M5.60997 35.0006C5.21941 34.6099 5 34.0801 5 33.5277C5 32.9753 5.21941 32.4455 5.60997 32.0548L10.0287 27.636C10.2209 27.437 10.4508 27.2783 10.705 27.1691C10.9591 27.06 11.2325 27.0025 11.5091 27.0001C11.7858 26.9977 12.0601 27.0504 12.3161 27.1551C12.5722 27.2599 12.8048 27.4146 13.0004 27.6102C13.196 27.8058 13.3507 28.0384 13.4554 28.2944C13.5602 28.5505 13.6129 28.8248 13.6105 29.1014C13.6081 29.3781 13.5506 29.6514 13.4414 29.9056C13.3322 30.1598 13.1735 30.3897 12.9746 30.5819L8.55789 35.0006C8.3644 35.1943 8.13464 35.348 7.88172 35.4528C7.62881 35.5577 7.35771 35.6116 7.08393 35.6116C6.81015 35.6116 6.53905 35.5577 6.28614 35.4528C6.03322 35.348 5.80346 35.1943 5.60997 35.0006Z" fill="#E2E2E2"/>
<path d="M11.5004 13.5844C12.0528 13.5844 12.5827 13.3649 12.9733 12.9744C13.3639 12.5837 13.5833 12.0539 13.5833 11.5015C13.5833 10.949 13.3639 10.4192 12.9733 10.0285L8.55667 5.6098C8.16575 5.21916 7.63566 4.9998 7.08302 5C6.53037 5.0002 6.00044 5.21992 5.6098 5.61084C5.21916 6.00176 4.9998 6.53185 5 7.08449C5.0002 7.63714 5.21992 8.16707 5.61084 8.55771L10.0275 12.9744C10.4182 13.3649 10.948 13.5844 11.5004 13.5844Z" fill="#D6D6D6"/>
<path d="M20.5565 31.6102C20.1658 31.2195 19.6359 31 19.0833 31C18.5308 31 18.0009 31.2195 17.6102 31.6102C17.2195 32.0009 17 32.5308 17 33.0833V39.3333C17 39.8859 17.2195 40.4158 17.6102 40.8065C18.0009 41.1972 18.5308 41.4167 19.0833 41.4167C19.6359 41.4167 20.1658 41.1972 20.5565 40.8065C20.9472 40.4158 21.1667 39.8859 21.1667 39.3333V33.0833C21.1667 32.5308 20.9472 32.0009 20.5565 31.6102Z" fill="#E7E7E7"/>
<path d="M20.5565 0.610193C20.1658 0.219492 19.6359 0 19.0833 0C18.5308 0 18.0009 0.219492 17.6102 0.610193C17.2195 1.00089 17 1.5308 17 2.08333V8.33333C17 8.88587 17.2195 9.41577 17.6102 9.80647C18.0009 10.1972 18.5308 10.4167 19.0833 10.4167C19.6359 10.4167 20.1658 10.1972 20.5565 9.80647C20.9472 9.41577 21.1667 8.88587 21.1667 8.33333V2.08333C21.1667 1.5308 20.9472 1.00089 20.5565 0.610193Z" fill="white"/>
<path d="M31.4765 35.5594C32.0289 35.5594 32.5587 35.34 32.9494 34.9494C33.1431 34.7559 33.2968 34.5261 33.4016 34.2732C33.5064 34.0203 33.5604 33.7492 33.5604 33.4754C33.5604 33.2017 33.5064 32.9306 33.4016 32.6776C33.2968 32.4247 33.1431 32.195 32.9494 32.0015L28.5307 27.5848C28.1377 27.2053 27.6115 26.9953 27.0652 27.0001C26.519 27.0048 25.9965 27.2239 25.6102 27.6102C25.2239 27.9965 25.0048 28.519 25.0001 29.0652C24.9953 29.6115 25.2053 30.1377 25.5848 30.5307L30.0036 34.9494C30.3942 35.34 30.9241 35.5594 31.4765 35.5594Z" fill="#EDEDED"/>
<path d="M38.8065 22.5565C39.1972 22.1658 39.4167 21.6359 39.4167 21.0833C39.4167 20.5308 39.1972 20.0009 38.8065 19.6102C38.4158 19.2195 37.8859 19 37.3333 19H31.0833C30.5308 19 30.0009 19.2195 29.6102 19.6102C29.2195 20.0009 29 20.5308 29 21.0833C29 21.6359 29.2195 22.1658 29.6102 22.5565C30.0009 22.9472 30.5308 23.1667 31.0833 23.1667H37.3333C37.8859 23.1667 38.4158 22.9472 38.8065 22.5565Z" fill="#F3F3F3"/>
<path d="M9.80647 22.5565C10.1972 22.1658 10.4167 21.6359 10.4167 21.0833C10.4167 20.5308 10.1972 20.0009 9.80647 19.6102C9.41577 19.2195 8.88587 19 8.33333 19H2.08333C1.5308 19 1.00089 19.2195 0.610193 19.6102C0.219492 20.0009 0 20.5308 0 21.0833C0 21.6359 0.219492 22.1658 0.610193 22.5565C1.00089 22.9472 1.5308 23.1667 2.08333 23.1667H8.33333C8.88587 23.1667 9.41577 22.9472 9.80647 22.5565Z" fill="#DCDCDC"/>
<path d="M25.61 12.9754C25.2194 12.5847 25 12.0549 25 11.5025C25 10.9501 25.2194 10.4203 25.61 10.0296L30.0266 5.61084C30.4173 5.21992 30.9472 5.0002 31.4999 5C32.0525 4.9998 32.5826 5.21916 32.9735 5.6098C33.3644 6.00044 33.5842 6.53037 33.5844 7.08302C33.5845 7.63566 33.3652 8.16575 32.9746 8.55667L28.5558 12.9754C28.1651 13.366 27.6353 13.5854 27.0829 13.5854C26.5305 13.5854 26.0007 13.366 25.61 12.9754Z" fill="#F9F9F9"/>
<path d="M25.61 12.9754C25.2194 12.5847 25 12.0549 25 11.5025C25 10.9501 25.2194 10.4203 25.61 10.0296L30.0266 5.61084C30.4173 5.21992 30.9472 5.0002 31.4999 5C32.0525 4.9998 32.5826 5.21916 32.9735 5.6098C33.3644 6.00044 33.5842 6.53037 33.5844 7.08302C33.5845 7.63566 33.3652 8.16575 32.9746 8.55667L28.5558 12.9754C28.1651 13.366 27.6353 13.5854 27.0829 13.5854C26.5305 13.5854 26.0007 13.366 25.61 12.9754Z" fill="#F9F9F9"/>
</svg>
