<svg width="15" height="8" viewBox="0 0 15 8" fill="none" xmlns="http://www.w3.org/2000/svg">
<path d="M5.8391 7.73885L4.63223 7.4151L5.1241 5.57822C4.38783 5.30668 3.70355 4.91095 3.10098 4.40822L1.75535 5.75447L0.870977 4.8701L2.21723 3.52447C1.45727 2.61432 0.946656 1.52245 0.735352 0.355723L1.96535 0.131348C2.43973 2.7576 4.73723 4.7501 7.50035 4.7501C10.2629 4.7501 12.561 2.7576 13.0354 0.131348L14.2654 0.355098C14.0543 1.52198 13.5439 2.61408 12.7841 3.52447L14.1297 4.8701L13.2454 5.75447L11.8997 4.40822C11.2972 4.91095 10.6129 5.30668 9.8766 5.57822L10.3685 7.41572L9.1616 7.73885L8.6691 5.90135C7.89557 6.0339 7.10513 6.0339 6.3316 5.90135L5.8391 7.73885Z" fill="white"/>
</svg>
