<svg width="15" height="15" viewBox="0 0 15 15" fill="none" xmlns="http://www.w3.org/2000/svg">
<path d="M12.5 13.75H2.5C2.33424 13.75 2.17527 13.6842 2.05806 13.5669C1.94085 13.4497 1.875 13.2908 1.875 13.125V1.875C1.875 1.70924 1.94085 1.55027 2.05806 1.43306C2.17527 1.31585 2.33424 1.25 2.5 1.25H12.5C12.6658 1.25 12.8247 1.31585 12.9419 1.43306C13.0592 1.55027 13.125 1.70924 13.125 1.875V13.125C13.125 13.2908 13.0592 13.4497 12.9419 13.5669C12.8247 13.6842 12.6658 13.75 12.5 13.75ZM5 5.625V6.875H10V5.625H5ZM5 8.125V9.375H10V8.125H5Z" fill="#330065"/>
</svg>
