<svg width="30" height="30" viewBox="0 0 30 30" fill="none" xmlns="http://www.w3.org/2000/svg">
<path opacity="0.3" d="M15 1.25001C17.9837 1.25001 20.8452 2.43528 22.955 4.54506C25.0647 6.65484 26.25 9.51633 26.25 12.5V17.5C26.2506 19.3104 25.8142 21.0942 24.978 22.6999C24.1417 24.3056 22.9303 25.6858 21.4467 26.7232C19.963 27.7607 18.2508 28.4247 16.4556 28.659C14.6604 28.8932 12.8352 28.6907 11.135 28.0688C11.295 27.8475 11.4488 27.6225 11.5963 27.3913L11.8088 27.0413C13.0209 25.0189 13.6884 22.7171 13.7463 20.36L13.75 20V11.25H16.25V20C16.2527 22.1457 15.8291 24.2706 15.0038 26.2513C15.9691 26.2508 16.9278 26.0911 17.8413 25.7788C18.3938 24.0775 18.7075 22.2688 18.7463 20.3913L18.75 20V16.2488H21.25V20C21.25 21.36 21.1225 22.6913 20.8775 23.9813C21.7457 23.1962 22.4469 22.2445 22.9396 21.1828C23.4322 20.1211 23.7061 18.9711 23.745 17.8013L23.75 17.5V12.5C23.75 10.8761 23.2981 9.28421 22.4449 7.90252C21.5916 6.52082 20.3707 5.40384 18.9187 4.67656C17.4668 3.94928 15.8411 3.64042 14.2235 3.78452C12.606 3.92862 11.0605 4.52002 9.76001 5.49251L7.97876 3.71001C9.97061 2.11411 12.4477 1.24623 15 1.25001V1.25001ZM8.75001 12.5C8.75001 10.8424 9.40849 9.2527 10.5806 8.08059C11.7527 6.90849 13.3424 6.25001 15 6.25001C16.6576 6.25001 18.2473 6.90849 19.4194 8.08059C20.5915 9.2527 21.25 10.8424 21.25 12.5V13.75H18.75V12.5C18.751 11.5239 18.3712 10.5859 17.6915 9.88524C17.0119 9.18463 16.0858 8.77666 15.1101 8.74801C14.1343 8.71937 13.1859 9.07231 12.4663 9.73184C11.7467 10.3914 11.3126 11.3055 11.2563 12.28L11.25 12.5V20C11.25 21.9588 10.75 23.8 9.87001 25.4038L9.84001 25.4538C9.55251 25.9713 9.22626 26.4638 8.86251 26.9275C8.31283 26.5691 7.79545 26.1634 7.31626 25.715L6.93001 25.34C4.88691 23.2422 3.74557 20.4283 3.75001 17.5V12.5C3.75001 9.84376 4.67001 7.40251 6.21001 5.47876L7.99251 7.26001C6.92043 8.68905 6.31384 10.4133 6.25501 12.1988L6.25001 12.5V17.5C6.25001 19.5938 6.98501 21.515 8.21251 23.0213C8.53527 22.1492 8.71509 21.2307 8.74501 20.3013L8.75001 20V12.5Z" fill="#222222"/>
</svg>
