<svg width="18" height="22" viewBox="0 0 18 22" fill="none" xmlns="http://www.w3.org/2000/svg">
<path d="M0.783 1.826L9 0L17.217 1.826C17.4391 1.87536 17.6377 1.99897 17.78 2.1764C17.9224 2.35384 18 2.57452 18 2.802V12.789C17.9999 13.7767 17.756 14.7492 17.2899 15.62C16.8238 16.4908 16.1499 17.2331 15.328 17.781L9 22L2.672 17.781C1.85027 17.2332 1.17646 16.4911 0.710348 15.6205C0.244236 14.7498 0.000236356 13.7776 0 12.79V2.802C3.90378e-05 2.57452 0.0776379 2.35384 0.21999 2.1764C0.362341 1.99897 0.560937 1.87536 0.783 1.826V1.826ZM8 9H5V11H8V14H10V11H13V9H10V6H8V9Z" fill="white"/>
</svg>
