<svg width="12" height="11" viewBox="0 0 12 11" fill="none" xmlns="http://www.w3.org/2000/svg">
<path d="M0.6 0H11.4C11.5591 0 11.7117 0.0643847 11.8243 0.17899C11.9368 0.293596 12 0.449034 12 0.611111V10.3889C12 10.551 11.9368 10.7064 11.8243 10.821C11.7117 10.9356 11.5591 11 11.4 11H0.6C0.44087 11 0.288258 10.9356 0.175736 10.821C0.0632141 10.7064 0 10.551 0 10.3889V0.611111C0 0.449034 0.0632141 0.293596 0.175736 0.17899C0.288258 0.0643847 0.44087 0 0.6 0ZM6 3.66667H3.6V4.88889H9L6 1.83333V3.66667ZM3 6.11111L6 9.16667V7.33333H8.4V6.11111H3Z" fill="#7EDFB7"/>
</svg>
