<svg width="59" height="65" viewBox="0 0 59 65" fill="none" xmlns="http://www.w3.org/2000/svg">
<path d="M48.1399 8.34109C47.8833 8.34109 47.6266 8.27692 47.402 8.14859C41.242 4.97234 35.9162 3.62484 29.4995 3.62484C23.1791 3.62484 17.1474 5.13275 11.6612 8.14859C10.8912 8.56567 9.92867 8.27692 9.47951 7.50692C9.06242 6.73692 9.35117 5.74234 10.1212 5.32525C16.0887 2.02067 22.6337 0.416504 29.4995 0.416504C36.3653 0.416504 42.3328 1.92442 48.8778 5.229C49.6799 5.71025 49.9687 6.67275 49.5516 7.44275C49.2628 8.02025 48.7495 8.34109 48.1399 8.34109ZM2.22867 25.1848C1.90784 25.1848 1.58701 25.0886 1.29825 24.8961C0.624505 24.3828 0.399921 23.3882 0.913255 22.6503C4.0895 18.1586 8.13201 14.6294 12.9445 12.159C23.0828 6.9615 35.9162 6.92942 46.0224 12.1269C50.8349 14.5973 54.8774 18.0623 58.0537 22.554C58.567 23.2598 58.3745 24.2865 57.6687 24.7998C56.9308 25.3132 55.9362 25.1528 55.4228 24.479C52.5353 20.3723 48.8778 17.1961 44.5466 14.9823C35.3387 10.2661 23.5641 10.2661 14.3883 15.0144C10.0249 17.2603 6.36742 20.4686 3.47992 24.479C3.22326 24.9603 2.742 25.1848 2.22867 25.1848ZM22.2808 63.9094C21.8637 63.9094 21.4787 63.749 21.1578 63.4282C18.3666 60.6369 16.8587 58.8403 14.7091 54.9582C12.4953 51.0119 11.3403 46.1994 11.3403 41.034C11.3403 31.5053 19.4895 23.7411 29.4995 23.7411C39.5095 23.7411 47.6587 31.5053 47.6587 41.034C47.6587 41.4595 47.4897 41.8675 47.1888 42.1683C46.888 42.4692 46.48 42.6382 46.0545 42.6382C45.6291 42.6382 45.221 42.4692 44.9202 42.1683C44.6194 41.8675 44.4503 41.4595 44.4503 41.034C44.4503 33.2698 37.7449 26.9494 29.4995 26.9494C21.2541 26.9494 14.5487 33.2698 14.5487 41.034C14.5487 45.654 15.5753 49.9211 17.5324 53.354C19.5858 57.0757 20.9974 58.6478 23.4678 61.1503C24.0774 61.7919 24.0774 62.7865 23.4678 63.4282C23.0828 63.749 22.6978 63.9094 22.2808 63.9094ZM45.2845 57.974C41.4666 57.974 38.0978 57.0115 35.3387 55.1186C30.5583 51.8782 27.7028 46.6165 27.7028 41.034C27.7028 40.6086 27.8718 40.2005 28.1727 39.8997C28.4735 39.5989 28.8816 39.4298 29.307 39.4298C29.7325 39.4298 30.1405 39.5989 30.4413 39.8997C30.7422 40.2005 30.9112 40.6086 30.9112 41.034C30.9112 45.5578 33.2212 49.8248 37.1353 52.4557C39.4133 53.9957 42.0762 54.7336 45.2845 54.7336C46.0545 54.7336 47.3378 54.6373 48.6212 54.4128C49.4874 54.2523 50.3537 54.8298 50.482 55.7282C50.6424 56.5623 50.0649 57.4286 49.1666 57.589C47.3378 57.9419 45.7337 57.974 45.2845 57.974ZM38.8358 64.5832C38.7074 64.5832 38.547 64.5832 38.4187 64.5832C33.3174 63.1073 29.9808 61.2144 26.4837 57.7815C21.992 53.354 19.5216 47.3865 19.5216 41.034C19.5216 35.8365 23.9491 31.6015 29.4033 31.6015C34.8574 31.6015 39.2849 35.8365 39.2849 41.034C39.2849 44.4669 42.3328 47.2582 45.9583 47.2582C49.6478 47.2582 52.6316 44.4669 52.6316 41.034C52.6316 28.9386 42.2045 19.1211 29.3712 19.1211C20.2595 19.1211 11.8537 24.1903 8.16409 32.0507C6.91284 34.6494 6.27117 37.6973 6.27117 41.034C6.27117 43.5365 6.49575 47.4828 8.42075 52.6161C8.74159 53.4503 8.3245 54.3807 7.49034 54.6694C6.65617 54.9582 5.72576 54.5411 5.43701 53.739C3.83284 49.5361 3.09492 45.3332 3.09492 41.034C3.09492 37.184 3.83284 33.6869 5.27659 30.639C9.54367 21.6878 19.0083 15.8807 29.3712 15.8807C43.937 15.8807 55.8399 27.1419 55.8399 41.0019C55.8399 46.1994 51.4124 50.4344 45.9583 50.4344C40.5041 50.4344 36.0766 46.1994 36.0766 41.0019C36.0766 37.569 33.0928 34.7778 29.4033 34.7778C25.7137 34.7778 22.7299 37.569 22.7299 41.0019C22.7299 46.4882 24.8474 51.6215 28.7295 55.4715C31.7774 58.4873 34.697 60.1557 39.2208 61.3748C40.087 61.6315 40.5683 62.5298 40.3437 63.364C40.1833 64.1019 39.5095 64.5832 38.8358 64.5832Z" fill="#4BBEFF"/>
</svg>
