<svg width="31" height="39" viewBox="0 0 31 39" fill="none" xmlns="http://www.w3.org/2000/svg">
<path d="M6.85629 28.0106C4.25278 26.1746 2.30144 23.5574 1.28498 20.5382C0.268514 17.5189 0.239726 14.2544 1.20278 11.2177C2.16584 8.18098 4.07073 5.52975 6.64145 3.64812C9.21217 1.76649 12.3152 0.752197 15.501 0.752197C18.6867 0.752197 21.7898 1.76649 24.3605 3.64812C26.9312 5.52975 28.8361 8.18098 29.7992 11.2177C30.7622 14.2544 30.7334 17.5189 29.717 20.5382C28.7005 23.5574 26.7492 26.1746 24.1457 28.0106L28.0513 36.9356C28.114 37.0785 28.1401 37.2348 28.1271 37.3903C28.1142 37.5457 28.0627 37.6955 27.9772 37.8261C27.8917 37.9566 27.775 38.0637 27.6377 38.1378C27.5003 38.2118 27.3467 38.2504 27.1907 38.25H3.80941C3.65363 38.2502 3.50025 38.2117 3.36312 38.1377C3.226 38.0638 3.10946 37.9569 3.02403 37.8266C2.93861 37.6963 2.887 37.5468 2.87386 37.3916C2.86072 37.2363 2.88648 37.0803 2.94879 36.9375L6.85441 28.0106H6.85629ZM8.22316 17.5688C8.63107 19.1897 9.56848 20.628 10.8867 21.6556C12.205 22.6832 13.8286 23.2413 15.5 23.2413C17.1715 23.2413 18.7951 22.6832 20.1133 21.6556C21.4316 20.628 22.369 19.1897 22.7769 17.5688L19.1394 16.6594C18.9376 17.4719 18.4696 18.1936 17.81 18.7093C17.1505 19.2251 16.3373 19.5053 15.5 19.5053C14.6628 19.5053 13.8496 19.2251 13.1901 18.7093C12.5305 18.1936 12.0625 17.4719 11.8607 16.6594L8.22316 17.5688Z" fill="#7EDFB7"/>
</svg>
