<svg width="24" height="19" viewBox="0 0 24 19" fill="none" xmlns="http://www.w3.org/2000/svg">
<path d="M4.72793 9.67143e-09H18.9819C19.1397 -2.19333e-05 19.2953 0.0372955 19.4359 0.108902C19.5765 0.180508 19.6982 0.284371 19.7909 0.412L23.6139 5.668C23.6819 5.76152 23.7154 5.8757 23.7086 5.99112C23.7019 6.10653 23.6553 6.21603 23.5769 6.301L12.2219 18.602C12.1751 18.6526 12.1184 18.693 12.0552 18.7206C11.992 18.7482 11.9239 18.7624 11.8549 18.7624C11.786 18.7624 11.7178 18.7482 11.6547 18.7206C11.5915 18.693 11.5347 18.6526 11.4879 18.602L0.132933 6.302C0.0542839 6.21697 0.00759803 6.10726 0.000849718 5.99163C-0.00589859 5.876 0.0277093 5.76161 0.0959327 5.668L3.91893 0.412C4.01171 0.284371 4.13338 0.180508 4.27398 0.108902C4.41459 0.0372955 4.57014 -2.19333e-05 4.72793 9.67143e-09Z" fill="white"/>
</svg>
