<svg width="242" height="228" viewBox="0 0 242 228" fill="none" xmlns="http://www.w3.org/2000/svg">
<g opacity="0.05">
<path d="M391.037 37.2379V27.4151C391.018 10.6024 384.341 -5.51619 372.471 -17.4046C360.601 -29.293 344.507 -35.9805 327.72 -36L198.768 -36V153.453H223.591V-11.1574H278.094C288.297 -11.1233 298.073 -7.04855 305.289 0.17783C312.504 7.40421 316.572 17.1955 316.606 27.4151V37.2379C316.572 47.4575 312.504 57.2488 305.289 64.4752C298.073 71.7015 288.297 75.7763 278.094 75.8103H267.053V100.653H316.22L329.321 120.317L336.792 131.596C322.914 137.955 309.487 145.257 296.605 153.453C286.282 159.977 274.984 167.736 262.987 176.987C232.938 200.134 194.186 208.833 164.156 199.102C148.35 193.997 137.623 184.506 133.961 172.288C124.098 139.907 157.348 126.565 161.157 125.127L152.73 101.777C132.139 109.149 96.7178 134.95 110.15 179.567C116.259 199.839 132.728 215.172 156.502 222.839C167.466 226.302 178.899 228.042 190.396 227.999C220.131 227.999 251.578 217.052 278.038 196.669C307.811 173.743 332.744 160.548 348.771 153.434H381.138L363.086 126.288L360.492 122.492L359.093 120.391L344.373 98.4046C357.768 94.7379 369.589 86.7662 378.02 75.7152C386.451 64.6642 391.024 51.1456 391.037 37.2379ZM366.233 37.2379C366.225 47.3571 362.246 57.0677 355.155 64.2762C348.065 71.4848 338.43 75.6139 328.327 75.7735C336.836 64.7376 341.439 51.181 341.41 37.2379V27.4151C341.439 13.472 336.836 -0.0845833 328.327 -11.1205C338.43 -10.961 348.065 -6.8318 355.155 0.376766C362.246 7.58533 366.225 17.2959 366.233 27.4151V37.2379Z" fill="#330065"/>
<path d="M0 37.2379V27.4151C0.0194702 10.6024 6.69659 -5.51619 18.5666 -17.4046C30.4366 -29.293 46.5301 -35.9805 63.3168 -36L192.269 -36V153.453H167.446V-11.1574H112.944C102.74 -11.1233 92.9637 -7.04855 85.7485 0.17783C78.5333 7.40421 74.4648 17.1955 74.4309 27.4151V37.2379C74.4648 47.4575 78.5333 57.2488 85.7485 64.4752C92.9637 71.7015 102.74 75.7763 112.944 75.8103H123.984V100.653H74.8173L61.716 120.317L54.2453 131.596C68.1232 137.955 81.5503 145.257 94.4324 153.453C104.755 159.977 116.053 167.736 128.051 176.987C158.099 200.134 196.851 208.833 226.881 199.102C242.687 193.997 253.415 184.506 257.076 172.288C266.939 139.907 233.689 126.565 229.88 125.127L238.308 101.777C258.898 109.149 294.319 134.95 280.887 179.567C274.778 199.839 258.309 215.172 234.535 222.839C223.571 226.302 212.138 228.042 200.641 227.999C170.906 227.999 139.459 217.052 112.999 196.669C83.2264 173.743 58.2935 160.548 42.2664 153.434H9.89957L27.9507 126.288L30.5452 122.492L31.9436 120.391L46.6642 98.4046C33.2693 94.7379 21.4477 86.7662 13.0169 75.7152C4.58603 64.6642 0.0126953 51.1456 0 37.2379ZM24.8041 37.2379C24.8125 47.3571 28.7909 57.0677 35.8816 64.2762C42.9723 71.4848 52.6074 75.6139 62.7096 75.7735C54.2011 64.7376 49.5986 51.181 49.6267 37.2379V27.4151C49.5986 13.472 54.2011 -0.0845795 62.7096 -11.1205C52.6074 -10.9609 42.9723 -6.8318 35.8816 0.376766C28.7909 7.58533 24.8125 17.2959 24.8041 27.4151V37.2379Z" fill="#330065"/>
</g>
</svg>
