<svg width="284" height="264" viewBox="0 0 284 264" fill="none" xmlns="http://www.w3.org/2000/svg">
<path d="M0 73.2379V63.4151C0.0194798 46.6024 6.6966 30.4838 18.5666 18.5954C30.4366 6.70699 46.5301 0.01951 63.3168 0L192.269 0V94.7264V189.453H167.446V24.8426H112.944C102.74 24.8767 92.9637 28.9515 85.7485 36.1778C78.5333 43.4042 74.4648 53.1955 74.4309 63.4151V73.2379C74.4648 83.4575 78.5333 93.2488 85.7485 100.475C92.9637 107.702 102.74 111.776 112.944 111.81H123.984V136.653H74.8173L61.716 156.317L54.2453 167.596C68.1232 173.955 81.5503 181.257 94.4324 189.453C104.755 195.977 116.053 203.736 128.051 212.987C158.099 236.134 196.851 244.833 226.881 235.102C242.687 229.997 253.415 220.506 257.076 208.288C266.939 175.907 233.689 162.565 229.88 161.127L238.308 137.777C258.898 145.149 294.319 170.95 280.887 215.567C274.778 235.839 258.309 251.172 234.535 258.839C223.571 262.302 212.138 264.042 200.641 263.999C170.906 263.999 139.459 253.052 112.999 232.669C83.2264 209.743 58.2935 196.548 42.2664 189.434H9.89957L27.9507 162.288L30.5452 158.492L31.9436 156.391L46.6642 134.405C33.2693 130.738 21.4477 122.766 13.0169 111.715C4.58603 100.664 0.0126971 87.1456 0 73.2379ZM24.8041 73.2379C24.8125 83.3571 28.7909 93.0677 35.8816 100.276C42.9723 107.485 52.6074 111.614 62.7096 111.773C54.2011 100.738 49.5986 87.181 49.6267 73.2379V63.4151C49.5986 49.472 54.2011 35.9154 62.7096 24.8795C52.6074 25.0391 42.9723 29.1682 35.8816 36.3768C28.7909 43.5853 24.8125 53.2959 24.8041 63.4151V73.2379Z" fill="white"/>
</svg>
