<svg width="78" height="72" viewBox="0 0 78 72" fill="none" xmlns="http://www.w3.org/2000/svg">
<path d="M77.5337 19.974V17.295C77.5283 12.7097 75.7045 8.31377 72.4622 5.07147C69.2199 1.82918 64.8239 0.00532091 60.2386 0L25.0153 0V51.669H31.7956V6.77527H46.6831C49.4702 6.78454 52.1406 7.89585 54.1114 9.86668C56.0823 11.8375 57.1936 14.5079 57.2028 17.295V19.974C57.1936 22.7611 56.0823 25.4315 54.1114 27.4023C52.1406 29.3731 49.4702 30.4845 46.6831 30.4937H43.6674V37.269H57.0973L60.6759 42.6319L62.7165 45.7079C58.9258 47.4422 55.2582 49.4338 51.7394 51.669C48.9197 53.4482 45.8337 55.5642 42.5566 58.0874C34.3489 64.4002 23.7638 66.7726 15.5611 64.1188C11.2436 62.7265 8.31334 60.138 7.31314 56.8057C4.61911 47.9747 13.7014 44.3358 14.7418 43.9437L12.4398 37.5756C6.81555 39.5861 -2.85982 46.6227 0.809282 58.791C2.47797 64.3198 6.97638 68.5016 13.4702 70.5925C16.4651 71.5368 19.5882 72.0115 22.7284 71.9998C30.8507 71.9998 39.4404 69.0142 46.668 63.4553C54.8003 57.2028 61.6108 53.604 65.9886 51.6639H74.8296L69.8989 44.2604L69.1902 43.225L68.8082 42.652L64.7873 36.6558C68.4461 35.6558 71.6752 33.4817 73.9781 30.4678C76.281 27.4539 77.5302 23.767 77.5337 19.974V19.974ZM70.7584 19.974C70.7561 22.7337 69.6694 25.3821 67.7326 27.3481C65.7957 29.314 63.1639 30.4402 60.4045 30.4837C62.7286 27.4739 63.9858 23.7766 63.9781 19.974V17.295C63.9858 13.4924 62.7286 9.79511 60.4045 6.78532C63.1639 6.82883 65.7957 7.95496 67.7326 9.92094C69.6694 11.8869 70.7561 14.5353 70.7584 17.295V19.974Z" fill="white"/>
</svg>
